HIERARCHY
ROOT Hips
{
	OFFSET 0.000000 0.000000 0.000000
	CHANNELS 6 Xposition Yposition Zposition Xrotation Yrotation Zrotation
	JOINT LeftUpLeg_virtual
	{
		OFFSET 0.000000 0.000000 0.000000
		CHANNELS 3 Xrotation Yrotation Zrotation
		JOINT LeftUpLeg
		{
			OFFSET 13.026900 -6.336304 -1.092800
			CHANNELS 3 Xrotation Yrotation Zrotation
			JOINT LeftLeg
			{
				OFFSET 0.524474 -46.096886 9.782700
				CHANNELS 3 Xrotation Yrotation Zrotation
				JOINT LeftFoot
				{
					OFFSET -0.524474 -53.427422 -12.948200
					CHANNELS 3 Xrotation Yrotation Zrotation
					JOINT LeftToeBase
					{
						OFFSET 0.192200 -14.009700 16.364100
						CHANNELS 3 Xrotation Yrotation Zrotation
						JOINT LeftToe_End
						{
							OFFSET -1.784700 -0.561700 9.474800
							CHANNELS 3 Xrotation Yrotation Zrotation
							End Site
							{
								OFFSET 0 0 0
							}
						}
					}
				}
			}
		}
	}
	JOINT RightUpLeg_virtual
	{
		OFFSET 0.000000 0.000000 0.000000
		CHANNELS 3 Xrotation Yrotation Zrotation
		JOINT RightUpLeg
		{
			OFFSET -12.883000 -6.336304 -1.092800
			CHANNELS 3 Xrotation Yrotation Zrotation
			JOINT RightLeg
			{
				OFFSET -0.524587 -46.096825 9.782800
				CHANNELS 3 Xrotation Yrotation Zrotation
				JOINT RightFoot
				{
					OFFSET 0.524587 -53.427383 -12.948300
					CHANNELS 3 Xrotation Yrotation Zrotation
					JOINT RightToeBase
					{
						OFFSET -0.192200 -14.009700 16.364100
						CHANNELS 3 Xrotation Yrotation Zrotation
						JOINT RightToe_End
						{
							OFFSET 1.784700 -0.561700 9.474800
							CHANNELS 3 Xrotation Yrotation Zrotation
							End Site
							{
								OFFSET 0 0 0
							}
						}
					}
				}
			}
		}
	}
	JOINT Spine_virtual
	{
		OFFSET 0.000000 0.000000 0.000000
		CHANNELS 3 Xrotation Yrotation Zrotation
		JOINT Spine
		{
			OFFSET 0.072000 7.257294 -0.789700
			CHANNELS 3 Xrotation Yrotation Zrotation
			JOINT Spine1
			{
				OFFSET 0.000000 12.508769 -0.658067
				CHANNELS 3 Xrotation Yrotation Zrotation
				JOINT Spine1_split
				{
					OFFSET 0.000000 12.508769 -0.658067
					CHANNELS 3 Xrotation Yrotation Zrotation
					JOINT Spine2
					{
						OFFSET 0.000000 12.508769 -0.658067
						CHANNELS 3 Xrotation Yrotation Zrotation
						JOINT Neck_virtual
						{
							OFFSET 0.000000 0.000000 0.000000
							CHANNELS 3 Xrotation Yrotation Zrotation
							JOINT Neck
							{
								OFFSET 0.000000 14.033295 7.520400
								CHANNELS 3 Xrotation Yrotation Zrotation
								JOINT Head
								{
									OFFSET 0.000000 8.198502 5.703100
									CHANNELS 3 Xrotation Yrotation Zrotation
									JOINT HeadTop_End
									{
										OFFSET 0.000000 17.760803 13.332701
										CHANNELS 3 Xrotation Yrotation Zrotation
										End Site
										{
											OFFSET 0 0 0
										}
									}
								}
							}
						}
						JOINT LeftShoulder_virtual
						{
							OFFSET 0.000000 0.000000 0.000000
							CHANNELS 3 Xrotation Yrotation Zrotation
							JOINT LeftShoulder
							{
								OFFSET 6.292450 5.785301 -0.669000
								CHANNELS 3 Xrotation Yrotation Zrotation
								JOINT LeftShoulder_split
								{
									OFFSET 6.292450 5.785301 -0.669000
									CHANNELS 3 Xrotation Yrotation Zrotation
									JOINT LeftArm
									{
										OFFSET 13.907140 -6.093903 1.965100
										CHANNELS 3 Xrotation Yrotation Zrotation
										JOINT LeftForeArm
										{
											OFFSET 34.140198 0.000000 0.000000
											CHANNELS 3 Xrotation Yrotation Zrotation
											JOINT LeftHand
											{
												OFFSET 40.960209 0.000000 0.000000
												CHANNELS 3 Xrotation Yrotation Zrotation
												End Site
												{
													OFFSET 0 0 0
												}
											}
										}
									}
								}
							}
						}
						JOINT RightShoulder_virtual
						{
							OFFSET 0.000000 0.000000 0.000000
							CHANNELS 3 Xrotation Yrotation Zrotation
							JOINT RightShoulder
							{
								OFFSET -6.292450 5.785301 -0.669000
								CHANNELS 3 Xrotation Yrotation Zrotation
								JOINT RightShoulder_split
								{
									OFFSET -6.292450 5.785301 -0.669000
									CHANNELS 3 Xrotation Yrotation Zrotation
									JOINT RightArm
									{
										OFFSET -13.907140 -6.093903 1.965100
										CHANNELS 3 Xrotation Yrotation Zrotation
										JOINT RightForeArm
										{
											OFFSET -34.140198 0.000000 0.000000
											CHANNELS 3 Xrotation Yrotation Zrotation
											JOINT RightHand
											{
												OFFSET -40.960209 0.000000 0.000000
												CHANNELS 3 Xrotation Yrotation Zrotation
												End Site
												{
													OFFSET 0 0 0
												}
											}
										}
									}
								}
							}
						}
					}
				}
			}
		}
	}
}
MOTION
Frames: 7
Frame Time: 0.03333333
0.608886 110.765007 -2.179985 0.000000 0.000000 0.000000 43.037865 -21.793819 6.676676 -82.311327 7.969343 28.273739 77.877448 -5.653503 -5.456313 8.293554 -14.214859 1.440790 1.432926 -1.859159 0.808987 0.000000 0.000000 0.000000 40.095905 -24.850916 8.604410 -45.963878 6.184154 8.158434 49.575668 -1.376085 -6.711291 -9.973631 -7.227836 -12.154122 -29.529435 5.065787 -4.258944 0.000000 0.000000 0.000000 44.119829 -15.952271 6.601146 18.231373 1.958415 -10.422575 -7.733192 1.777348 1.498001 2.137751 -0.286461 0.743316 0.000000 0.000000 0.000000 -9.303356 -1.116562 3.994146 -0.557651 7.642010 -1.899515 -18.756466 12.118910 -7.974183 0.000000 0.000000 0.000000 -9.462386 -0.681739 3.150293 1.959090 -4.208751 11.007365 -1.438266 -8.364583 -4.983474 -66.556744 -3.384983 -22.717844 172.445761 -78.710772 172.689257 0.000000 0.000000 0.000000 -9.751193 -1.379905 4.564728 5.287475 15.247103 0.280644 -4.141898 1.771645 2.511272 -16.395657 0.352536 46.881397 1.039553 67.410525 -4.666552 0.000000 0.000000 0.000000 
-1.203933 110.540894 12.188953 0.000000 0.000000 0.000000 39.824596 -22.772827 6.321754 -83.700014 9.425754 28.804113 67.887716 -3.556341 -6.482279 7.628260 -13.344024 1.234064 0.597226 -1.779228 0.839156 0.000000 0.000000 0.000000 38.931737 -29.161278 10.673227 -42.342358 7.226749 5.767079 50.106251 -0.924205 -6.160273 -4.413247 -5.254726 -7.044208 -33.792453 5.036243 -4.059507 0.000000 0.000000 0.000000 43.333056 -16.470697 6.628856 18.039798 3.326354 -10.751752 -7.959633 2.207398 1.536110 0.187644 1.107437 -0.011441 0.000000 0.000000 0.000000 -8.681991 -0.756748 4.143203 -0.699582 7.497253 -1.628622 -18.505218 11.428640 -7.553066 0.000000 0.000000 0.000000 -9.170987 -0.144308 3.451718 1.675167 -2.642440 9.892399 0.604842 -7.124987 -4.372844 -63.204781 -0.595083 -22.325752 162.160384 -79.021997 162.186803 0.000000 0.000000 0.000000 -9.907747 -0.946469 4.289658 5.216466 17.020727 -0.000227 -5.140208 1.911628 0.060824 -19.556283 7.325249 45.695717 5.984567 73.703376 -10.012239 0.000000 0.000000 0.000000 
-2.795582 111.022049 29.434128 0.000000 0.000000 0.000000 36.394287 -22.543536 6.779815 -80.592469 10.599782 25.954282 56.494359 -0.534411 -6.248833 7.925481 -11.249316 1.209764 -0.175953 -1.749489 0.796934 0.000000 0.000000 0.000000 37.253737 -30.219438 12.025842 -33.011506 9.466068 2.091778 46.888364 -0.162878 -6.065987 5.101630 -1.803038 2.041423 -35.286007 4.640983 -3.321224 0.000000 0.000000 0.000000 40.168192 -15.935192 6.316757 19.165127 5.813305 -11.930054 -7.602344 2.955990 1.711571 -0.791312 0.589337 0.927858 0.000000 0.000000 0.000000 -7.622565 0.070643 4.377826 -2.141721 6.305594 -0.901038 -18.444564 9.257491 -7.536383 0.000000 0.000000 0.000000 -8.528803 0.842898 3.738379 1.279171 -0.639807 6.918285 1.916012 -5.523899 -2.244413 -57.493473 4.422488 -22.408341 142.282744 -76.414176 142.328520 0.000000 0.000000 0.000000 -9.324239 0.039679 3.968360 5.207491 19.417246 0.216860 -4.965867 0.818200 -2.236315 -22.335738 14.168305 42.903430 18.496325 77.736644 -23.112822 0.000000 0.000000 0.000000 
-3.521859 111.282272 46.318169 0.000000 0.000000 0.000000 32.698236 -20.620548 7.648763 -73.655039 11.090643 20.213523 46.667114 2.366052 -4.582320 7.666780 -8.344570 1.797460 0.833328 -1.753867 0.576146 0.000000 0.000000 0.000000 35.372351 -27.481401 12.127424 -20.708099 11.375956 -2.212598 42.116104 0.075820 -6.343106 13.798924 2.385312 10.500552 -32.639896 3.975588 -2.196679 0.000000 0.000000 0.000000 34.787007 -14.163634 5.792370 21.863149 8.605095 -13.559074 -6.744184 3.665275 1.944756 1.010304 -1.603660 3.124934 0.000000 0.000000 0.000000 -6.457167 0.941837 4.636028 -4.809969 4.515396 0.150671 -18.478056 6.312506 -7.874924 0.000000 0.000000 0.000000 -7.824467 1.761764 3.809249 1.027660 1.237608 2.563787 3.541189 -3.932288 0.092963 -49.805552 10.504788 -24.487936 130.918525 -70.031405 131.049815 0.000000 0.000000 0.000000 -8.169827 1.052270 3.599130 4.976927 21.643036 1.689476 -4.440618 -0.859636 -3.988564 -23.071500 17.705945 39.022063 33.514744 78.673923 -38.871747 0.000000 0.000000 0.000000 
-3.675944 110.546951 62.107224 0.000000 0.000000 0.000000 28.187660 -16.855259 8.408531 -64.780936 10.802888 12.812765 39.380057 3.947645 -1.791850 5.585426 -5.939527 2.141406 2.722589 -1.684233 0.206395 0.000000 0.000000 0.000000 32.691089 -21.509077 10.936495 -10.738618 11.900706 -6.263610 41.576205 -0.704848 -6.386466 19.277545 4.955019 14.793794 -24.275056 3.202427 -0.485417 0.000000 0.000000 0.000000 28.278214 -10.600763 5.414865 25.942134 10.743971 -14.988370 -5.567495 3.958247 2.002820 2.576446 -2.919368 4.340884 0.000000 0.000000 0.000000 -5.423862 1.293447 4.745546 -8.409146 2.462583 1.312427 -18.386658 3.058354 -8.364576 0.000000 0.000000 0.000000 -7.208104 2.077956 3.511132 0.946863 2.094870 -2.469077 6.265035 -2.058400 2.055616 -40.162725 15.985947 -29.409965 128.593570 -62.099855 128.756128 0.000000 0.000000 0.000000 -6.794665 1.491090 3.154612 4.351783 22.636785 4.790813 -4.948987 -2.249222 -4.880300 -20.978175 16.318903 35.334495 43.227526 78.287615 -49.365469 0.000000 0.000000 0.000000 
-3.224618 108.430298 75.983498 0.000000 0.000000 0.000000 23.121725 -13.113293 9.155052 -54.815430 9.874183 5.133878 35.129275 3.673185 1.359425 1.361025 -4.929105 2.002300 2.309239 -1.566202 -0.068208 0.000000 0.000000 0.000000 28.843807 -13.334029 9.227566 -8.161457 11.268037 -9.508105 48.641957 -2.600148 -5.863739 21.546646 4.795545 14.814962 -12.920448 2.634785 1.763150 0.000000 0.000000 0.000000 21.474192 -6.302197 6.186577 30.759156 11.629605 -15.694752 -4.323069 3.438777 1.749034 3.029671 -4.048227 3.656958 0.000000 0.000000 0.000000 -4.736177 0.791901 4.567521 -12.416807 0.497280 2.347769 -17.476963 0.600529 -8.435500 0.000000 0.000000 0.000000 -6.677747 1.486422 2.820688 0.877374 1.584595 -7.173017 9.613233 -0.063582 3.040617 -30.546969 18.547085 -36.488605 131.038941 -54.744683 131.037644 0.000000 0.000000 0.000000 -5.656154 0.968196 2.672103 3.439172 21.397331 9.017772 -6.043841 -3.278914 -4.643118 -15.895068 10.194862 33.298740 46.991865 78.397628 -53.711771 0.000000 0.000000 0.000000 
-2.386124 105.180984 89.047287 0.000000 0.000000 0.000000 18.010763 -9.199237 9.766650 -45.353877 8.666235 -1.582513 34.455767 1.872116 4.296515 -3.776567 -4.834489 -0.564284 -0.778319 -1.319400 -0.111946 0.000000 0.000000 0.000000 24.495113 -4.190252 7.854826 -13.535100 10.164314 -11.832609 61.927194 -4.822049 -4.313031 20.688686 3.358366 13.084604 -5.478806 2.134214 3.626411 0.000000 0.000000 0.000000 15.293982 -2.563247 7.415201 35.401151 11.198107 -15.049774 -3.416249 1.950552 1.309479 2.803239 -4.045262 1.778641 0.000000 0.000000 0.000000 -4.290529 -0.631675 4.034877 -16.514504 -1.206215 3.142385 -15.357650 -1.062797 -7.785053 0.000000 0.000000 0.000000 -6.106699 -0.001418 1.989055 0.704926 -0.074575 -10.663449 11.633708 1.981410 1.991585 -22.729329 17.662121 -43.376032 135.925505 -49.123479 135.543137 0.000000 0.000000 0.000000 -4.882372 -0.618912 2.128692 2.336104 17.821907 13.443544 -7.224625 -3.453264 -4.059835 -8.358926 1.460301 34.122754 46.226369 79.505082 -53.375900 0.000000 0.000000 0.000000 
